<?xml version="1.0" encoding="utf-8"?>
<!-- Generator: Adobe Illustrator 18.0.0, SVG Export Plug-In . SVG Version: 6.00 Build 0)  -->
<!DOCTYPE svg PUBLIC "-//W3C//DTD SVG 1.1//EN" "http://www.w3.org/Graphics/SVG/1.1/DTD/svg11.dtd">
<svg version="1.1" id="Layer_1" xmlns="http://www.w3.org/2000/svg" xmlns:xlink="http://www.w3.org/1999/xlink" x="0px" y="0px"
	 viewBox="0 0 770 767.3" enable-background="new 0 0 770 767.3" xml:space="preserve">
<polyline id="XMLID_28_" points="62.8,14.5 62.8,708.3 64.4,708.3 64.4,14.5 62.8,14.5 "/>
<polygon id="XMLID_29_" points="58.9,17.7 63.6,0 68.4,17.7 "/>
<polyline id="XMLID_37_" points="63.6,707.2 755.5,707.2 755.5,705.6 63.6,705.6 63.6,707.2 "/>
<polygon id="XMLID_39_" points="752.3,711.1 770,706.4 752.3,701.6 "/>
<polyline id="XMLID_50_" fill="#FFFFFF" points="93.1,706.4 63.6,706.4 63.6,117.7 93.1,117.7 93.1,706.4 "/>
<polyline id="XMLID_51_" fill="#232323" points="93.1,706.4 93.1,705.6 64.4,705.6 64.4,118.5 92.2,118.5 92.2,706.4 93.1,706.4 
	93.1,705.6 93.1,706.4 93.9,706.4 93.9,116.9 62.8,116.9 62.8,707.2 93.9,707.2 93.9,706.4 93.1,706.4 "/>
<polyline id="XMLID_52_" fill="#FFFFFF" points="122.5,706.4 93.1,706.4 93.1,176.6 122.5,176.6 122.5,706.4 "/>
<polyline id="XMLID_53_" fill="#232323" points="122.5,706.4 122.5,705.6 93.9,705.6 93.9,177.4 121.7,177.4 121.7,706.4 
	122.5,706.4 122.5,705.6 122.5,706.4 123.3,706.4 123.3,175.8 92.2,175.8 92.2,707.2 123.3,707.2 123.3,706.4 122.5,706.4 "/>
<polyline id="XMLID_54_" fill="#FFFFFF" points="151.9,706.4 122.5,706.4 122.5,206 151.9,206 151.9,706.4 "/>
<polyline id="XMLID_55_" fill="#232323" points="151.9,706.4 151.9,705.6 123.3,705.6 123.3,206.8 151.1,206.8 151.1,706.4 
	151.9,706.4 151.9,705.6 151.9,706.4 152.7,706.4 152.7,205.2 121.7,205.2 121.7,707.2 152.7,707.2 152.7,706.4 151.9,706.4 "/>
<polyline id="XMLID_56_" fill="#FFFFFF" points="181.4,706.4 151.9,706.4 151.9,235.5 181.4,235.5 181.4,706.4 "/>
<polyline id="XMLID_57_" fill="#232323" points="181.4,706.4 181.4,705.6 152.7,705.6 152.7,236.3 180.5,236.3 180.5,706.4 
	181.4,706.4 181.4,705.6 181.4,706.4 182.2,706.4 182.2,234.6 151.1,234.6 151.1,707.2 182.2,707.2 182.2,706.4 181.4,706.4 "/>
<polyline id="XMLID_58_" fill="#FFFFFF" points="210.8,706.4 181.4,706.4 181.4,235.5 210.8,235.5 210.8,706.4 "/>
<polyline id="XMLID_59_" fill="#232323" points="210.8,706.4 210.8,705.6 182.2,705.6 182.2,236.3 210,236.3 210,706.4 210.8,706.4 
	210.8,705.6 210.8,706.4 211.6,706.4 211.6,234.6 180.5,234.6 180.5,707.2 211.6,707.2 211.6,706.4 210.8,706.4 "/>
<polyline id="XMLID_60_" fill="#FFFFFF" points="240.2,706.4 210.8,706.4 210.8,264.9 240.2,264.9 240.2,706.4 "/>
<polyline id="XMLID_61_" fill="#232323" points="240.2,706.4 240.2,705.6 211.6,705.6 211.6,265.7 239.4,265.7 239.4,706.4 
	240.2,706.4 240.2,705.6 240.2,706.4 241,706.4 241,264.1 210,264.1 210,707.2 241,707.2 241,706.4 240.2,706.4 "/>
<polyline id="XMLID_62_" fill="#FFFFFF" points="269.7,706.4 240.2,706.4 240.2,353.2 269.7,353.2 269.7,706.4 "/>
<polyline id="XMLID_63_" fill="#232323" points="269.7,706.4 269.7,705.6 241,705.6 241,354 268.8,354 268.8,706.4 269.7,706.4 
	269.7,705.6 269.7,706.4 270.5,706.4 270.5,352.4 239.4,352.4 239.4,707.2 270.5,707.2 270.5,706.4 269.7,706.4 "/>
<polyline id="XMLID_64_" fill="#FFFFFF" points="299.1,706.4 269.7,706.4 269.7,382.6 299.1,382.6 299.1,706.4 "/>
<polyline id="XMLID_65_" fill="#232323" points="299.1,706.4 299.1,705.6 270.5,705.6 270.5,383.4 298.3,383.4 298.3,706.4 
	299.1,706.4 299.1,705.6 299.1,706.4 299.9,706.4 299.9,381.8 268.8,381.8 268.8,707.2 299.9,707.2 299.9,706.4 299.1,706.4 "/>
<polyline id="XMLID_66_" fill="#FFFFFF" points="328.5,706.4 299.1,706.4 299.1,414.5 328.5,414.5 328.5,706.4 "/>
<polyline id="XMLID_67_" fill="#232323" points="328.5,706.3 328.5,705.4 299.9,705.4 299.9,415.5 327.7,415.5 327.7,706.3 
	328.5,706.3 328.5,705.4 328.5,706.3 329.3,706.3 329.3,413.7 298.3,413.7 298.3,707.2 329.3,707.2 329.3,706.3 328.5,706.3 "/>
<polyline id="XMLID_68_" fill="#FFFFFF" points="358,706.4 328.5,706.4 328.5,470.9 358,470.9 358,706.4 "/>
<polyline id="XMLID_69_" fill="#232323" points="358,706.4 358,705.6 329.3,705.6 329.3,471.7 357.1,471.7 357.1,706.4 358,706.4 
	358,705.6 358,706.4 358.8,706.4 358.8,470.1 327.7,470.1 327.7,707.2 358.8,707.2 358.8,706.4 358,706.4 "/>
<polyline id="XMLID_70_" fill="#FFFFFF" points="387.4,706.4 358,706.4 358,470.9 387.4,470.9 387.4,706.4 "/>
<polyline id="XMLID_71_" fill="#232323" points="387.4,706.4 387.4,705.6 358.8,705.6 358.8,471.7 386.6,471.7 386.6,706.4 
	387.4,706.4 387.4,705.6 387.4,706.4 388.2,706.4 388.2,470.1 357.1,470.1 357.1,707.2 388.2,707.2 388.2,706.4 387.4,706.4 "/>
<polyline id="XMLID_72_" fill="#FFFFFF" points="416.8,706.4 387.4,706.4 387.4,588.6 416.8,588.6 416.8,706.4 "/>
<polyline id="XMLID_73_" fill="#232323" points="416.8,706.4 416.8,705.6 388.2,705.6 388.2,589.5 416,589.5 416,706.4 416.8,706.4 
	416.8,705.6 416.8,706.4 417.6,706.4 417.6,587.8 386.6,587.8 386.6,707.2 417.6,707.2 417.6,706.4 416.8,706.4 "/>
<polyline id="XMLID_74_" fill="#FFFFFF" points="475.7,706.4 446.2,706.4 446.2,647.5 475.7,647.5 475.7,706.4 "/>
<polyline id="XMLID_75_" fill="#232323" points="475.7,706.4 475.7,705.6 447.1,705.6 447.1,648.3 474.9,648.3 474.9,706.4 
	475.7,706.4 475.7,705.6 475.7,706.4 476.5,706.4 476.5,646.7 445.4,646.7 445.4,707.2 476.5,707.2 476.5,706.4 475.7,706.4 "/>
<polyline id="XMLID_76_" fill="#FFFFFF" points="446.2,706.4 416.8,706.4 416.8,647.5 446.2,647.5 446.2,706.4 "/>
<polyline id="XMLID_77_" fill="#232323" points="446.2,706.4 446.2,705.6 417.6,705.6 417.6,648.3 445.4,648.3 445.4,706.4 
	446.2,706.4 446.2,705.6 446.2,706.4 447.1,706.4 447.1,646.7 416,646.7 416,707.2 447.1,707.2 447.1,706.4 446.2,706.4 "/>
<polyline id="XMLID_78_" fill="#FFFFFF" points="505.1,706.4 475.7,706.4 475.7,676.9 505.1,676.9 505.1,706.4 "/>
<polyline id="XMLID_79_" fill="#232323" points="505.1,706.4 505.1,705.6 476.5,705.6 476.5,677.8 504.3,677.8 504.3,706.4 
	505.1,706.4 505.1,705.6 505.1,706.4 505.9,706.4 505.9,676.1 474.9,676.1 474.9,707.2 505.9,707.2 505.9,706.4 505.1,706.4 "/>
<polyline id="XMLID_80_" points="64.2,706.9 71.1,700 70,698.9 63.1,705.8 64.2,706.9 "/>
<path id="XMLID_101_" d="M617.9,153.3l14-14l-1.2-1.2l-14,14L617.9,153.3 M589.8,181.3l14-14l-1.2-1.2l-14,14L589.8,181.3
	 M561.8,209.4l14-14l-1.2-1.2l-14,14L561.8,209.4 M533.8,237.4l14-14l-1.2-1.2l-14,14L533.8,237.4 M505.7,265.4l14-14l-1.2-1.2
	l-14,14L505.7,265.4 M477.7,293.5l14-14l-1.2-1.2l-14,14L477.7,293.5 M449.7,321.5l14-14l-1.2-1.2l-14,14L449.7,321.5 M421.6,349.5
	l14-14l-1.2-1.2l-14,14L421.6,349.5 M393.6,377.6l14-14l-1.2-1.2l-14,14L393.6,377.6 M365.5,405.6l14-14l-1.2-1.2l-14,14
	L365.5,405.6 M337.5,433.7l14-14l-1.2-1.2l-14,14L337.5,433.7 M309.5,461.7l14-14l-1.2-1.2l-14,14L309.5,461.7 M281.4,489.7l14-14
	l-1.2-1.2l-14,14L281.4,489.7 M253.4,517.8l14-14l-1.2-1.2l-14,14L253.4,517.8 M225.4,545.8l14-14l-1.2-1.2l-14,14L225.4,545.8
	 M197.3,573.8l14-14l-1.2-1.2l-14,14L197.3,573.8 M169.3,601.9l14-14l-1.2-1.2l-14,14L169.3,601.9 M141.2,629.9l14-14l-1.2-1.2
	l-14,14L141.2,629.9 M113.2,658l14-14l-1.2-1.2l-14,14L113.2,658 M85.2,686l14-14l-1.2-1.2l-14,14L85.2,686"/>
<polyline id="XMLID_102_" points="645.9,125.2 652.8,118.3 651.7,117.1 644.8,124.1 "/>
<text id="XMLID_104_" transform="matrix(0 -1 1 0 44.4573 149.0216)" fill="#3B56A6" font-family="'Helvetica Neue'" font-size="36">citations</text>
<text id="XMLID_105_" transform="matrix(1 0 0 1 652.2702 750.5167)" fill="#A53B62" font-family="'Helvetica Neue'" font-size="36">papers</text>
<path id="XMLID_103_" d="M62.3,264.1c-0.7,0-1.3,0.3-1.8,0.7c-1,0.8-1.7,2-2.3,3.7c-1.1,2.9-2,7.1-2.6,12.2
	c-2,15.3-2.3,38.3-2.3,55.6c0,7.7,0.1,14.2,0.1,18.4c0,19.5,0,119.1,0,119.1l0.8,0l-0.8-0.3l-5.2,12.4c-0.2,0.4,0,0.9,0.4,1.1
	c0.4,0.2,0.9,0,1.1-0.4l5.2-12.4l0.1-0.3c0,0,0-99.5,0-119.1c0-4.2-0.1-10.7-0.1-18.4c0-14,0.2-31.9,1.3-46.2
	c0.6-7.1,1.4-13.4,2.5-17.8c0.5-2.2,1.2-4,1.9-5.1c0.3-0.6,0.7-1,1-1.2c0.3-0.2,0.6-0.3,0.8-0.3c0.5,0,0.8-0.4,0.8-0.8
	C63.1,264.4,62.7,264.1,62.3,264.1"/>
<path id="XMLID_106_" d="M62.3,707.1c-0.3,0-0.5-0.1-0.8-0.3c-0.6-0.4-1.2-1.5-1.8-3c-1-2.7-1.9-6.8-2.5-11.9
	c-2-15.1-2.3-38.1-2.3-55.4c0-7.6,0.1-14.2,0.1-18.4c0-9.8,0-39.5,0-66.9c0-13.7,0-26.7,0-36.3c0-4.8,0-8.8,0-11.5
	c0-2.8,0-4.3,0-4.3l-0.1-0.3l-5.2-12.4c-0.2-0.4-0.7-0.6-1.1-0.4c-0.4,0.2-0.6,0.7-0.4,1.1l5.2,12.4l0.8-0.3h-0.8
	c0,0,0,99.5,0,119.1c0,4.2-0.1,10.7-0.1,18.4c0,14,0.2,31.9,1.3,46.3c0.6,7.2,1.4,13.5,2.5,18.1c0.6,2.3,1.2,4.2,2,5.5
	c0.4,0.7,0.8,1.2,1.4,1.7c0.5,0.4,1.2,0.7,1.8,0.7c0.5,0,0.8-0.4,0.8-0.8C63.1,707.4,62.7,707.1,62.3,707.1L62.3,707.1z"/>
<path id="XMLID_107_" d="M61.3,706.4c0,0.7,0.3,1.3,0.7,1.8c0.8,1,2,1.7,3.7,2.3c2.9,1.1,7.1,2,12.2,2.6c15.3,2,38.3,2.3,55.6,2.3
	c7.7,0,14.2-0.1,18.4-0.1c19.5,0,119.1,0,119.1,0v-0.8l-0.3,0.8l12.4,5.2c0.4,0.2,0.9,0,1.1-0.4c0.2-0.4,0-0.9-0.4-1.1l-12.4-5.2
	l-0.3-0.1c0,0-99.5,0-119.1,0c-4.2,0-10.7,0.1-18.4,0.1c-14,0-31.9-0.2-46.2-1.3c-7.1-0.6-13.4-1.4-17.8-2.5c-2.2-0.5-4-1.2-5.1-1.9
	c-0.6-0.3-1-0.7-1.2-1c-0.2-0.3-0.3-0.6-0.3-0.8c0-0.5-0.4-0.8-0.8-0.8C61.7,705.6,61.3,705.9,61.3,706.4"/>
<path id="XMLID_108_" d="M504.3,706.4c0,0.3-0.1,0.5-0.3,0.8c-0.4,0.6-1.5,1.2-3,1.8c-2.7,1-6.8,1.9-11.9,2.5
	c-15.1,2-38.1,2.3-55.4,2.3c-7.6,0-14.2-0.1-18.4-0.1c-9.8,0-39.5,0-66.9,0c-13.7,0-26.7,0-36.3,0c-4.8,0-8.8,0-11.5,0
	c-2.8,0-4.3,0-4.3,0l-0.3,0.1l-12.4,5.2c-0.4,0.2-0.6,0.7-0.4,1.1c0.2,0.4,0.7,0.6,1.1,0.4l12.4-5.2l-0.3-0.8v0.8
	c0,0,99.5,0,119.1,0c4.2,0,10.7,0.1,18.4,0.1c14,0,31.9-0.2,46.3-1.3c7.2-0.6,13.5-1.4,18.1-2.5c2.3-0.6,4.2-1.2,5.5-2
	c0.7-0.4,1.2-0.8,1.7-1.4c0.4-0.5,0.7-1.2,0.7-1.8c0-0.5-0.4-0.8-0.8-0.8C504.7,705.6,504.3,705.9,504.3,706.4L504.3,706.4"/>
<text id="XMLID_110_" transform="matrix(1 0 0 1 17.4575 491.0216)" font-family="'Helvetica Neue'" font-size="36">n</text>
<text id="XMLID_111_" transform="matrix(1 0 0 1 269.4574 752.0215)" font-family="'Helvetica Neue'" font-size="36">n</text>
<polyline id="XMLID_109_" fill="#AFB1B4" points="505.9,265.7 241,265.7 504.3,265.7 504.3,676.1 505.9,676.1 505.9,705.6 
	505.9,265.7 "/>
<path id="XMLID_112_" fill="#2C2929" d="M62.8,265.5L62.8,265.5V706c0.1,0.1,0.1,0.3,0.1,0.4c0,0.3,0.1,0.5,0.3,0.8h29v-1.6H65.6
	l-1.4,1.4l-1.2-1.2l1.4-1.4V265.7h-1.6V265.5"/>
<polyline id="XMLID_113_" fill="#2C2929" points="121.7,705.6 121.7,705.6 93.9,705.6 92.2,705.6 92.2,707.2 121.7,707.2 
	121.7,705.6 "/>
<polyline id="XMLID_114_" fill="#2C2929" points="151.1,705.6 151.1,705.6 123.3,705.6 121.7,705.6 121.7,707.2 151.1,707.2 
	151.1,705.6 "/>
<polyline id="XMLID_115_" fill="#2C2929" points="180.5,705.6 180.5,705.6 152.7,705.6 151.1,705.6 151.1,707.2 180.5,707.2 
	180.5,705.6 "/>
<polyline id="XMLID_116_" fill="#2C2929" points="210,705.6 210,705.6 182.2,705.6 180.5,705.6 180.5,707.2 210,707.2 210,705.6 "/>
<polyline id="XMLID_117_" fill="#2C2929" points="239.4,705.6 239.4,705.6 211.6,705.6 210,705.6 210,707.2 239.4,707.2 
	239.4,705.6 "/>
<polyline id="XMLID_118_" fill="#2C2929" points="268.8,705.6 268.8,705.6 241,705.6 239.4,705.6 239.4,707.2 268.8,707.2 
	268.8,705.6 "/>
<polyline id="XMLID_119_" fill="#2C2929" points="298.3,705.6 298.3,705.6 270.5,705.6 268.8,705.6 268.8,707.2 298.3,707.2 
	298.3,705.6 "/>
<polyline id="XMLID_120_" fill="#2C2929" points="327.7,705.6 327.7,705.6 299.9,705.6 298.3,705.6 298.3,707.2 327.7,707.2 
	327.7,705.6 "/>
<polyline id="XMLID_121_" fill="#2C2929" points="357.1,705.6 357.1,705.6 329.3,705.6 327.7,705.6 327.7,707.2 357.1,707.2 
	357.1,705.6 "/>
<polyline id="XMLID_122_" fill="#2C2929" points="386.6,705.6 386.6,705.6 358.8,705.6 357.1,705.6 357.1,707.2 386.6,707.2 
	386.6,705.6 "/>
<polyline id="XMLID_123_" fill="#2C2929" points="416,705.6 416,705.6 388.2,705.6 386.6,705.6 386.6,707.2 416,707.2 416,705.6 "/>
<polyline id="XMLID_124_" fill="#2C2929" points="474.9,705.6 474.9,705.6 447.1,705.6 447.1,706.4 447.1,707.2 474.9,707.2 
	474.9,705.6 "/>
<path id="XMLID_127_" fill="#2C2929" d="M446.2,706.4L446.2,706.4v-0.8V706.4h0.8H446.2 M447.1,705.6h-1.6h-27.8H416v1.6h31.1v-0.8
	V705.6"/>
<path id="XMLID_128_" fill="#2C2929" d="M505.9,676.1h-1.6v29.4h-27.8h-1.6v1.6H504c0.2-0.3,0.3-0.6,0.3-0.8h0
	c0-0.5,0.4-0.8,0.8-0.8v0v0l0,0l0,0v0v0c0.5,0,0.8,0.4,0.8,0.8l0,0v-0.8V676.1"/>
<polyline id="XMLID_129_" points="64.4,704.4 64.4,704.4 63.1,705.8 64.2,706.9 65.6,705.6 64.4,705.6 64.4,704.4 "/>
<path id="XMLID_130_" fill="#2C2929" d="M505.9,706.4c0,0.3,0,0.5-0.1,0.8h0.1V706.4"/>
<path id="XMLID_131_" fill="#131111" d="M62.8,706v1.2h0.4c-0.2-0.3-0.3-0.6-0.3-0.8C62.9,706.2,62.9,706.1,62.8,706"/>
<path id="XMLID_134_" fill="#131111" d="M505.1,705.6v0.8h0.8C505.9,705.9,505.6,705.6,505.1,705.6 M505.1,705.6L505.1,705.6
	L505.1,705.6c-0.5,0-0.8,0.4-0.8,0.8h0c0,0.3-0.1,0.5-0.3,0.8h1.8c0.1-0.3,0.1-0.5,0.1-0.8l0,0v0l0,0l0,0l0,0h-0.8V705.6
	L505.1,705.6"/>
<polyline id="XMLID_135_" fill="#A9A5A5" points="504.3,118.5 93.9,118.5 93.9,175.8 123.3,175.8 123.3,205.2 152.7,205.2 
	152.7,234.6 180.5,234.6 211.6,234.6 211.6,264.1 504.3,264.1 504.3,118.5 "/>
<polyline id="XMLID_136_" fill="#A9A5A5" points="92.2,118.5 64.4,118.5 64.4,264.1 92.2,264.1 92.2,118.5 "/>
<polyline id="XMLID_137_" fill="#343434" points="93.9,118.5 64.4,118.5 92.2,118.5 92.2,264.1 92.2,175.8 93.9,175.8 93.9,118.5 
	"/>
<polyline id="XMLID_138_" fill="#A9A5A5" points="121.7,177.4 93.9,177.4 93.9,264.1 121.7,264.1 121.7,177.4 "/>
<polyline id="XMLID_139_" fill="#343434" points="123.3,175.8 93.9,175.8 92.2,175.8 92.2,264.1 93.9,264.1 93.9,177.4 121.7,177.4 
	121.7,264.1 121.7,264.1 121.7,205.2 123.3,205.2 123.3,175.8 "/>
<polyline id="XMLID_140_" fill="#A9A5A5" points="151.1,206.8 123.3,206.8 123.3,264.1 151.1,264.1 151.1,206.8 "/>
<polyline id="XMLID_141_" fill="#343434" points="152.7,205.2 123.3,205.2 121.7,205.2 121.7,264.1 123.3,264.1 123.3,206.8 
	151.1,206.8 151.1,264.1 151.1,234.6 152.7,234.6 152.7,205.2 "/>
<polyline id="XMLID_142_" fill="#A9A5A5" points="180.5,236.3 152.7,236.3 152.7,264.1 180.5,264.1 180.5,236.3 "/>
<polyline id="XMLID_143_" fill="#343434" points="180.5,234.6 152.7,234.6 151.1,234.6 151.1,264.1 152.7,264.1 152.7,236.3 
	180.5,236.3 180.5,264.1 180.5,234.6 "/>
<polyline id="XMLID_144_" fill="#A9A5A5" points="210,236.3 182.2,236.3 182.2,264.1 210,264.1 210,236.3 "/>
<polyline id="XMLID_145_" fill="#343434" points="211.6,234.6 180.5,234.6 180.5,264.1 182.2,264.1 182.2,236.3 210,236.3 
	210,264.1 211.6,264.1 211.6,234.6 "/>
<polyline id="XMLID_146_" fill="#A9ACAE" points="505.9,116.9 64.4,116.9 93.9,116.9 93.9,118.5 504.3,118.5 504.3,264.1 
	211.6,264.1 504.8,264.1 505.9,262.9 505.9,116.9 "/>
<polyline id="XMLID_147_" fill="#2C2A2A" points="93.9,116.9 64.4,116.9 62.8,116.9 62.8,264.1 64.4,264.1 64.4,118.5 93.9,118.5 
	93.9,116.9 "/>
<polyline id="XMLID_148_" points="505.9,262.9 504.8,264.1 505.1,264.1 505.9,264.1 505.9,264.9 505.9,265.2 505.9,264.9 
	505.9,262.9 "/>
<polyline id="XMLID_149_" fill="#7F8183" points="505.1,264.8 505.1,264.9 505.2,264.9 505.1,264.8 "/>
<polyline id="XMLID_150_" points="505.9,264.1 505.1,264.1 505.1,264.8 505.2,264.9 505.9,264.9 505.9,264.1 "/>
<polyline id="XMLID_151_" fill="#7F8183" points="504.8,264.1 211.6,264.1 241,264.1 241,265.7 505.9,265.7 505.9,265.2 
	505.7,265.4 505.2,264.9 505.1,264.9 505.1,264.8 504.6,264.3 504.8,264.1 "/>
<polyline id="XMLID_152_" fill="#7F8183" points="92.2,264.1 64.4,264.1 64.4,265.7 92.2,265.7 92.2,264.1 "/>
<path id="XMLID_153_" fill="#2C2A2B" d="M64.4,264.1h-1.6v0.2c0.2,0.1,0.3,0.4,0.3,0.6c0,0.3-0.1,0.5-0.3,0.6v0.2h1.6V264.1"/>
<polyline id="XMLID_154_" fill="#7F8183" points="121.7,264.1 93.9,264.1 93.9,265.7 121.7,265.7 121.7,264.1 "/>
<path id="XMLID_157_" fill="#2C2A2B" d="M93.9,264.1h-1.6v1.6h1.6V264.1 M121.7,264.1L121.7,264.1l0,1.6h0V264.1"/>
<polyline id="XMLID_158_" fill="#7F8183" points="151.1,264.1 123.3,264.1 123.3,265.7 151.1,265.7 151.1,264.1 "/>
<polyline id="XMLID_159_" fill="#2C2A2B" points="123.3,264.1 121.7,264.1 121.7,265.7 123.3,265.7 123.3,264.1 "/>
<polyline id="XMLID_160_" fill="#7F8183" points="180.5,264.1 152.7,264.1 152.7,265.7 180.5,265.7 180.5,264.1 "/>
<polyline id="XMLID_161_" fill="#2C2A2B" points="152.7,264.1 151.1,264.1 151.1,265.7 152.7,265.7 152.7,264.1 "/>
<polyline id="XMLID_162_" fill="#7F8183" points="210,264.1 182.2,264.1 182.2,265.7 210,265.7 210,264.1 "/>
<path id="XMLID_165_" fill="#2C2A2B" d="M182.2,264.1h-1.6v1.6h1.6V264.1 M211.6,264.1H210v1.6v-1.6H211.6"/>
<polyline id="XMLID_166_" fill="#2C2A2B" points="241,264.1 211.6,264.1 210,264.1 210,265.7 241,265.7 241,264.1 "/>
<path id="XMLID_169_" d="M505.9,264.9h-0.7l0.5,0.5l0.2-0.2V264.9 M505.1,264.1h-0.3l-0.2,0.2l0.5,0.5V264.1"/>
<path id="XMLID_170_" fill="#151414" d="M62.8,264.3v1.3c0.2-0.1,0.3-0.4,0.3-0.6C63.1,264.6,63,264.4,62.8,264.3"/>
<text id="XMLID_172_" transform="matrix(1 0 0 1 284.3715 161.8757)"><tspan x="0" y="0" font-family="'Helvetica Neue'" font-size="30">cut o</tspan><tspan x="67.8" y="0" font-family="'Helvetica Neue'" font-size="30">f</tspan><tspan x="76.2" y="0" font-family="'Helvetica Neue'" font-size="30">f</tspan></text>
</svg>
